<svg width="24" height="23" viewBox="0 0 24 23" fill="none" xmlns="http://www.w3.org/2000/svg">
<path d="M22.4031 9.50053L12.9794 9.50008C12.5633 9.50008 12.226 9.83582 12.226 10.2501V13.2471C12.226 13.6612 12.5633 13.9971 12.9794 13.9971H18.2862C17.7051 15.4984 16.6205 16.7557 15.2367 17.5546L17.4996 21.4542C21.1294 19.3643 23.2754 15.6974 23.2754 11.5925C23.2754 11.0081 23.2322 10.5902 23.1456 10.1198C23.0798 9.76233 22.7681 9.50053 22.4031 9.50053Z" fill="#167EE6"/>
<path d="M11.7233 18.5C9.12624 18.5 6.85904 17.0874 5.64137 14.997L1.72433 17.2446C3.71769 20.6839 7.45187 23 11.7233 23C13.8187 23 15.7959 22.4383 17.4992 21.4595V21.4542L15.2363 17.5545C14.2013 18.1521 13.0035 18.5 11.7233 18.5Z" fill="#12B347"/>
<path d="M17.4996 21.4595V21.4542L15.2368 17.5545C14.2017 18.1521 13.0041 18.5 11.7238 18.5V23C13.8192 23 15.7965 22.4383 17.4996 21.4595Z" fill="#0F993E"/>
<path d="M4.69279 11.5001C4.69279 10.2257 5.04214 9.03341 5.64234 8.00304L1.72531 5.75542C0.736686 7.44569 0.172546 9.40869 0.172546 11.5001C0.172546 13.5915 0.736686 15.5545 1.72531 17.2447L5.64234 14.9971C5.04214 13.9667 4.69279 12.7745 4.69279 11.5001Z" fill="#FFD500"/>
<path d="M11.7231 4.5C13.4167 4.5 14.9723 5.09908 16.1873 6.09558C16.4871 6.3414 16.9228 6.32365 17.1973 6.0503L19.3303 3.92685C19.6419 3.61671 19.6197 3.10904 19.2869 2.82163C17.2511 1.06344 14.6023 0 11.7231 0C7.45169 0 3.7175 2.31604 1.72415 5.75535L5.64118 8.00297C6.85885 5.91262 9.12606 4.5 11.7231 4.5Z" fill="#FF4B26"/>
<path d="M16.188 6.09558C16.4877 6.3414 16.9234 6.32365 17.198 6.0503L19.331 3.92685C19.6425 3.61671 19.6203 3.10904 19.2875 2.82163C17.2518 1.06339 14.603 0 11.7238 0V4.5C13.4173 4.5 14.9729 5.09908 16.188 6.09558Z" fill="#D93F21"/>
</svg>
